<svg width="55" height="54" viewBox="0 0 55 54" fill="none" xmlns="http://www.w3.org/2000/svg">
<g opacity="0.7">
<path d="M23.5896 0.688351C20.0267 1.40223 17.3916 4.22805 17.0011 7.74669C16.9379 8.32611 16.9065 8.39847 16.7058 8.39847C16.5793 8.39847 14.7769 8.50215 12.7106 8.62635L8.94746 8.85423L8.89466 9.22683C8.76816 10.0757 5.11066 50.9456 5.16291 50.9872C5.20526 51.0288 39.0105 53.3573 40.7397 53.4296L41.2875 53.4609L43.5749 50.5422L45.8519 47.6235H47.8446C49.626 47.6235 49.8367 47.603 49.8367 47.4475C49.8367 47.3028 48.4452 35.6285 45.7359 13.1181C45.3355 9.77493 44.9769 7.01175 44.9455 6.98097C44.9142 6.95019 44.6716 7.00149 44.3977 7.09491C43.7548 7.31253 43.6074 7.30173 42.7741 7.04307C42.1631 6.84651 41.931 6.83625 40.6132 6.88755C39.8014 6.92913 38.9159 6.98043 38.6524 7.01175L38.1778 7.07385L38.0408 6.5047C37.63 4.69353 36.1433 2.93422 34.2354 1.98219C32.928 1.33041 32.4539 1.22673 30.5355 1.19541C29.1231 1.17489 28.6699 1.12305 28.1529 0.957268C26.8467 0.522568 24.9602 0.418892 23.5896 0.688351ZM25.0234 3.27549C23.8745 4.40355 23.1259 5.89396 22.989 7.31199L22.9257 7.96377L22.2828 8.01561C21.9346 8.05719 21.0601 8.10903 20.3539 8.15007C18.8678 8.23269 18.9311 8.28453 19.2154 7.22883C19.7638 5.16927 21.6822 3.44073 24.1379 2.80947C24.5598 2.70579 25.0867 2.61291 25.3078 2.61291L25.7082 2.60265L25.0234 3.27549ZM32.9709 3.42021C34.4042 3.95859 35.7116 5.35557 36.1125 6.75255L36.2181 7.12515L35.5752 7.19751C35.227 7.22883 34.6473 7.25961 34.2997 7.25961H33.6463L33.467 6.51441C33.2454 5.56239 32.6871 4.42407 32.086 3.64755L31.6119 3.03681L32.0227 3.13023C32.2543 3.18261 32.6761 3.31707 32.9709 3.42021ZM29.2293 3.79281C29.9883 4.32039 30.6312 5.06559 31.0107 5.85237C31.2742 6.39075 31.5591 7.33251 31.4854 7.41513C31.4326 7.45671 24.9288 7.88115 24.8865 7.83957C24.7919 7.74615 25.129 6.48363 25.4029 5.92473C25.8138 5.07585 26.8049 4.09305 27.7008 3.65835C28.0699 3.47205 28.4175 3.32733 28.4703 3.32733C28.5231 3.32733 28.8707 3.53415 29.2293 3.79281ZM43.4072 8.47083C43.4286 8.49135 43.7867 17.154 44.1975 27.7002L44.9356 46.8886L43.2174 49.0929C42.2687 50.3036 41.4041 51.3803 41.3095 51.4835C41.1197 51.6698 41.1197 51.6282 41.1621 50.4483C41.183 49.7754 41.3414 40.6575 41.5097 30.1837C41.689 19.7099 41.8578 10.437 41.8892 9.57783L41.9524 8.01507L42.6482 8.21163C43.0381 8.32611 43.3753 8.44005 43.4072 8.47083ZM22.5776 11.1104C22.6095 11.2448 22.7569 12.4145 22.9043 13.7186C23.1573 15.9952 23.1677 16.0989 22.9884 16.3678C21.9764 17.889 17.4967 23.9127 17.4015 23.8711C17.3278 23.8506 16.01 22.9499 14.4711 21.8839C12.6055 20.5901 11.6881 19.8864 11.7096 19.7828C11.7305 19.7001 12.9955 17.9198 14.5135 15.8294C16.4005 13.2212 17.3383 12.0105 17.5071 11.969C18.4982 11.7206 22.2085 10.903 22.3455 10.8927C22.4615 10.8825 22.5462 10.9754 22.5776 11.1104Z" fill="white"/>
<path d="M19.2677 12.766C18.6248 13.0868 18.319 13.5631 18.319 14.2359C18.319 16.0573 20.8171 16.5233 21.5447 14.8466C21.7449 14.3812 21.724 14.0188 21.471 13.5118C21.0596 12.6731 20.1004 12.3524 19.2677 12.766Z" fill="white"/>
</g>
</svg>
